<svg width="490" height="145" viewBox="0 0 490 145" fill="none" xmlns="http://www.w3.org/2000/svg">
<path d="M162.406 65.8809C162.406 67.2936 161.632 68 160.082 68H156.049C155.251 68 154.682 67.7835 154.34 67.3506C153.998 66.9176 153.827 66.4277 153.827 65.8809V18.6104C153.827 17.8128 154.032 17.1178 154.442 16.5254C154.875 15.9102 155.57 15.6025 156.527 15.6025H170.062C176.443 15.6025 181.387 17.1292 184.896 20.1826C188.565 23.3499 190.399 27.873 190.399 33.752C190.399 39.6764 188.337 44.416 184.213 47.9707C180.294 51.3659 175.338 53.0635 169.345 53.0635C167.453 53.0635 165.141 52.8926 162.406 52.5508V65.8809ZM162.406 45.373L165.141 45.6807C165.961 45.7718 167.077 45.8174 168.49 45.8174C169.903 45.8174 171.43 45.6009 173.07 45.168C174.711 44.735 176.146 44.04 177.377 43.083C180.089 41.0094 181.444 37.9105 181.444 33.7861C181.444 28.568 179.132 25.207 174.506 23.7031C173.07 23.2474 171.464 23.0195 169.687 23.0195H162.406V45.373ZM196.825 68C196.164 68 195.663 67.7949 195.321 67.3848C194.979 66.9518 194.809 66.5872 194.809 66.291C194.809 65.972 194.843 65.7214 194.911 65.5391L212.172 19.123C212.947 17.0951 214.188 15.9557 215.897 15.7051C216.49 15.6367 217.196 15.6025 218.017 15.6025H218.598C220.147 15.6025 221.218 15.7962 221.811 16.1836C222.768 16.776 223.508 17.7217 224.032 19.0205L242.592 65.5732C242.66 65.7555 242.694 66.0176 242.694 66.3594C242.694 66.6784 242.558 67.0316 242.284 67.4189C242.011 67.8063 241.555 68 240.917 68H236.132C235.084 68 234.354 67.5101 233.944 66.5303L229.706 55.4219H207.25L203.319 66.5303C203 67.5101 202.305 68 201.234 68H196.825ZM226.835 48.0391L218.666 25.8223C218.598 25.5944 218.461 25.4805 218.256 25.4805C218.051 25.4805 217.914 25.5944 217.846 25.8223L209.916 48.0391H226.835ZM253.222 19.8408C253.222 17.0153 254.452 15.6025 256.913 15.6025H258.314C259.249 15.6025 259.898 15.7165 260.263 15.9443C260.946 16.3545 261.584 17.0039 262.177 17.8926L284.188 50.2949C285.032 51.5254 285.692 52.6533 286.171 53.6787L287.572 56.6182C287.595 56.6637 287.629 56.6865 287.675 56.6865C287.743 56.6865 287.755 56.3903 287.709 55.7979C287.663 55.2054 287.549 54.3509 287.367 53.2344C287.185 52.0951 287.094 50.9671 287.094 49.8506V17.6875C287.094 17.0951 287.265 16.6051 287.606 16.2178C287.971 15.8076 288.404 15.6025 288.905 15.6025H293.417C293.896 15.6025 294.306 15.8076 294.647 16.2178C295.012 16.6051 295.194 17.0951 295.194 17.6875V64.582C295.194 65.4935 294.91 66.1999 294.34 66.7012C293.383 67.5671 292.517 68 291.742 68H289.657C288.518 68 287.686 67.8177 287.162 67.4531C286.387 66.8607 285.43 65.7441 284.291 64.1035C271.28 45.0768 264.307 34.8001 263.373 33.2734L260.536 28.5225C260.491 28.4541 260.422 28.4199 260.331 28.4199C260.263 28.4199 260.263 28.5908 260.331 28.9326C260.399 29.2744 260.491 29.8555 260.604 30.6758C260.741 31.4733 260.867 32.362 260.98 33.3418C261.208 35.6204 261.322 37.7396 261.322 39.6992V65.915C261.322 66.4847 261.14 66.9746 260.775 67.3848C260.434 67.7949 260.012 68 259.511 68H254.999C254.521 68 254.099 67.7949 253.734 67.3848C253.393 66.9746 253.222 66.4847 253.222 65.915V19.8408ZM311.293 18.5762C311.293 17.7786 311.555 17.0837 312.079 16.4912C312.626 15.8988 313.378 15.6025 314.335 15.6025H325.17C334.193 15.6025 340.984 17.8356 345.541 22.3018C349.87 26.5856 352.035 32.7038 352.035 40.6562C352.035 49.1556 349.597 55.8434 344.721 60.7197C339.867 65.5732 333.145 68 324.555 68H314.335C313.378 68 312.626 67.7038 312.079 67.1113C311.555 66.4961 311.293 65.7897 311.293 64.9922V18.5762ZM326.195 23.1221H324.486C323.734 23.1221 322.196 23.1562 319.872 23.2246V60.4463L325.443 60.5488H325.648C334.467 60.5488 339.89 56.7435 341.918 49.1328C342.579 46.6719 342.909 43.9489 342.909 40.9639C342.909 37.9561 342.545 35.3698 341.815 33.2051C341.109 31.0176 340.049 29.1719 338.637 27.668C335.788 24.6374 331.641 23.1221 326.195 23.1221ZM362.528 55.0801C361.549 53.0293 360.797 50.8532 360.272 48.5518C359.771 46.2275 359.521 43.4932 359.521 40.3486C359.521 37.1813 360.124 33.9684 361.332 30.71C362.562 27.4515 364.294 24.6374 366.527 22.2676C371.244 17.2546 377.351 14.748 384.848 14.748C392.823 14.748 399.078 17.3115 403.612 22.4385C407.919 27.292 410.072 33.6266 410.072 41.4424C410.072 49.1898 407.702 55.6725 402.963 60.8906C400.73 63.3516 398.052 65.2998 394.931 66.7354C391.809 68.1481 388.642 68.8545 385.429 68.8545C382.239 68.8545 379.516 68.5241 377.26 67.8633C375.004 67.1797 372.942 66.234 371.073 65.0264C369.228 63.7959 367.587 62.3376 366.151 60.6514C364.716 58.9652 363.508 57.1081 362.528 55.0801ZM368.783 41.2031C368.783 43.8236 369.091 46.3073 369.706 48.6543C370.344 51.0013 371.312 53.0977 372.611 54.9434C375.482 58.9766 379.527 60.9932 384.745 60.9932C389.986 60.9932 394.031 59.0677 396.879 55.2168C399.499 51.6621 400.81 47.0592 400.81 41.4082C400.81 36.0762 399.477 31.6784 396.811 28.2148C393.871 24.4551 389.861 22.5752 384.779 22.5752C379.88 22.5752 375.984 24.3298 373.09 27.8389C370.219 31.2796 368.783 35.7344 368.783 41.2031ZM457.069 60.6514L460.59 60.1729C461.228 60.1729 461.672 60.3893 461.923 60.8223C462.196 61.2552 462.39 61.7223 462.504 62.2236C462.641 62.7021 462.766 63.1351 462.88 63.5225C462.994 63.9098 463.051 64.3314 463.051 64.7871C463.051 65.2428 462.823 65.71 462.367 66.1885C461.934 66.6442 461.376 67.0544 460.692 67.4189C459.234 68.1937 457.707 68.5811 456.112 68.5811C454.54 68.5811 453.116 68.3988 451.84 68.0342C450.564 67.6696 449.356 67.1683 448.217 66.5303C446.439 65.5277 444.617 64.1149 442.748 62.292C440.902 60.4691 439.433 58.9082 438.339 57.6094L432.699 50.6367C431.902 49.6797 431.184 48.9049 430.546 48.3125V65.8467C430.546 66.7581 430.238 67.4076 429.623 67.7949C429.395 67.9316 429.133 68 428.837 68H423.949C423.334 68 422.901 67.8177 422.65 67.4531C422.24 66.8607 422.035 66.3252 422.035 65.8467V18.6104C422.035 17.8128 422.24 17.1178 422.65 16.5254C423.083 15.9102 423.778 15.6025 424.735 15.6025H439.979C453.537 15.6025 460.316 20.9574 460.316 31.667C460.316 36.5889 458.493 40.7246 454.848 44.0742C451.407 47.2415 447.351 48.8252 442.68 48.8252C441.859 48.8252 441.073 48.7682 440.321 48.6543L444.525 53.0977C446.941 55.627 448.821 57.3359 450.165 58.2246C452.58 59.8424 454.882 60.6514 457.069 60.6514ZM430.546 41.7842C433.121 42.3766 435.445 42.6729 437.519 42.6729C439.615 42.6729 441.483 42.4792 443.124 42.0918C444.765 41.7044 446.223 41.0892 447.499 40.2461C450.325 38.4232 451.737 35.723 451.737 32.1455C451.737 28.9326 450.518 26.5514 448.08 25.002C446.029 23.7031 443.249 23.0537 439.74 23.0537H430.546V41.7842ZM473.852 17.79C473.852 17.1976 474.034 16.6849 474.398 16.252C474.786 15.819 475.242 15.6025 475.766 15.6025H480.551C481.075 15.6025 481.519 15.819 481.884 16.252C482.248 16.6849 482.431 17.1976 482.431 17.79V65.8125C482.431 66.4049 482.237 66.9176 481.85 67.3506C481.485 67.7835 481.041 68 480.517 68H475.731C475.207 68 474.763 67.7835 474.398 67.3506C474.034 66.9176 473.852 66.4049 473.852 65.8125V17.79Z" fill="#03256C"/>
<path d="M151.736 117C151.472 117 151.271 116.918 151.135 116.754C150.998 116.581 150.93 116.435 150.93 116.316C150.93 116.189 150.943 116.089 150.971 116.016L157.875 97.4492C158.185 96.638 158.682 96.1823 159.365 96.082C159.602 96.0547 159.885 96.041 160.213 96.041H160.445C161.065 96.041 161.493 96.1185 161.73 96.2734C162.113 96.5104 162.41 96.8887 162.619 97.4082L170.043 116.029C170.07 116.102 170.084 116.207 170.084 116.344C170.084 116.471 170.029 116.613 169.92 116.768C169.811 116.923 169.628 117 169.373 117H167.459C167.04 117 166.748 116.804 166.584 116.412L164.889 111.969H155.906L154.334 116.412C154.206 116.804 153.928 117 153.5 117H151.736ZM163.74 109.016L160.473 100.129C160.445 100.038 160.391 99.9922 160.309 99.9922C160.227 99.9922 160.172 100.038 160.145 100.129L156.973 109.016H163.74ZM172.504 114.854C172.504 114.525 172.636 114.138 172.9 113.691C173.165 113.245 173.342 112.971 173.434 112.871C173.616 112.652 173.798 112.543 173.98 112.543C174.172 112.543 174.372 112.602 174.582 112.721C174.792 112.839 175.07 112.99 175.416 113.172C175.771 113.345 176.15 113.509 176.551 113.664C177.444 114.001 178.223 114.17 178.889 114.17C179.563 114.17 180.11 114.111 180.529 113.992C180.949 113.874 181.309 113.696 181.609 113.459C182.229 112.958 182.539 112.256 182.539 111.354C182.539 110.214 181.678 109.243 179.955 108.441C179.463 108.214 178.907 107.986 178.287 107.758C177.676 107.521 177.029 107.206 176.346 106.814C175.671 106.423 175.065 105.962 174.527 105.434C173.333 104.249 172.736 102.854 172.736 101.25C172.736 99.5456 173.434 98.1784 174.828 97.1484C176.132 96.1823 177.667 95.6992 179.436 95.6992C181.404 95.6992 183.022 96.1276 184.289 96.9844C184.982 97.4401 185.328 97.8639 185.328 98.2559C185.328 98.4655 185.205 98.8027 184.959 99.2676C184.713 99.7324 184.512 100.047 184.357 100.211C184.212 100.375 184.075 100.457 183.947 100.457C183.719 100.457 183.419 100.334 183.045 100.088C182.68 99.8418 182.156 99.5729 181.473 99.2812C180.789 98.9896 180.142 98.8438 179.531 98.8438C178.921 98.8438 178.428 98.8939 178.055 98.9941C177.69 99.0944 177.371 99.2448 177.098 99.4453C176.533 99.8737 176.25 100.498 176.25 101.318C176.25 102.503 177.061 103.442 178.684 104.135L180.01 104.682C181.787 105.365 183.136 106.122 184.057 106.951C185.324 108.1 185.957 109.508 185.957 111.176C185.957 113.035 185.255 114.548 183.852 115.715C182.557 116.799 181.04 117.342 179.299 117.342C177.066 117.342 175.165 116.882 173.598 115.961C172.868 115.542 172.504 115.173 172.504 114.854ZM188.828 114.854C188.828 114.525 188.96 114.138 189.225 113.691C189.489 113.245 189.667 112.971 189.758 112.871C189.94 112.652 190.122 112.543 190.305 112.543C190.496 112.543 190.697 112.602 190.906 112.721C191.116 112.839 191.394 112.99 191.74 113.172C192.096 113.345 192.474 113.509 192.875 113.664C193.768 114.001 194.548 114.17 195.213 114.17C195.887 114.17 196.434 114.111 196.854 113.992C197.273 113.874 197.633 113.696 197.934 113.459C198.553 112.958 198.863 112.256 198.863 111.354C198.863 110.214 198.002 109.243 196.279 108.441C195.787 108.214 195.231 107.986 194.611 107.758C194.001 107.521 193.354 107.206 192.67 106.814C191.995 106.423 191.389 105.962 190.852 105.434C189.658 104.249 189.061 102.854 189.061 101.25C189.061 99.5456 189.758 98.1784 191.152 97.1484C192.456 96.1823 193.992 95.6992 195.76 95.6992C197.729 95.6992 199.346 96.1276 200.613 96.9844C201.306 97.4401 201.652 97.8639 201.652 98.2559C201.652 98.4655 201.529 98.8027 201.283 99.2676C201.037 99.7324 200.837 100.047 200.682 100.211C200.536 100.375 200.399 100.457 200.271 100.457C200.044 100.457 199.743 100.334 199.369 100.088C199.005 99.8418 198.48 99.5729 197.797 99.2812C197.113 98.9896 196.466 98.8438 195.855 98.8438C195.245 98.8438 194.753 98.8939 194.379 98.9941C194.014 99.0944 193.695 99.2448 193.422 99.4453C192.857 99.8737 192.574 100.498 192.574 101.318C192.574 102.503 193.385 103.442 195.008 104.135L196.334 104.682C198.111 105.365 199.46 106.122 200.381 106.951C201.648 108.1 202.281 109.508 202.281 111.176C202.281 113.035 201.579 114.548 200.176 115.715C198.882 116.799 197.364 117.342 195.623 117.342C193.39 117.342 191.49 116.882 189.922 115.961C189.193 115.542 188.828 115.173 188.828 114.854ZM206.848 96.916C206.848 96.679 206.921 96.474 207.066 96.3008C207.221 96.1276 207.404 96.041 207.613 96.041H219.631C219.868 96.041 220.046 96.1185 220.164 96.2734C220.292 96.4193 220.355 96.6016 220.355 96.8203V98.2969C220.355 98.5065 220.292 98.6888 220.164 98.8438C220.046 98.9896 219.868 99.0625 219.631 99.0625H210.279V105.051H217.717C217.954 105.051 218.132 105.128 218.25 105.283C218.378 105.429 218.441 105.611 218.441 105.83V107.307C218.441 107.516 218.378 107.699 218.25 107.854C218.132 107.999 217.954 108.072 217.717 108.072H210.279V113.979H219.699C219.936 113.979 220.114 114.056 220.232 114.211C220.36 114.357 220.424 114.539 220.424 114.758V116.234C220.424 116.444 220.36 116.626 220.232 116.781C220.114 116.927 219.936 117 219.699 117H207.6C207.39 117 207.212 116.913 207.066 116.74C206.921 116.567 206.848 116.362 206.848 116.125V96.916ZM223.773 114.854C223.773 114.525 223.906 114.138 224.17 113.691C224.434 113.245 224.612 112.971 224.703 112.871C224.885 112.652 225.068 112.543 225.25 112.543C225.441 112.543 225.642 112.602 225.852 112.721C226.061 112.839 226.339 112.99 226.686 113.172C227.041 113.345 227.419 113.509 227.82 113.664C228.714 114.001 229.493 114.17 230.158 114.17C230.833 114.17 231.38 114.111 231.799 113.992C232.218 113.874 232.578 113.696 232.879 113.459C233.499 112.958 233.809 112.256 233.809 111.354C233.809 110.214 232.947 109.243 231.225 108.441C230.732 108.214 230.176 107.986 229.557 107.758C228.946 107.521 228.299 107.206 227.615 106.814C226.941 106.423 226.335 105.962 225.797 105.434C224.603 104.249 224.006 102.854 224.006 101.25C224.006 99.5456 224.703 98.1784 226.098 97.1484C227.401 96.1823 228.937 95.6992 230.705 95.6992C232.674 95.6992 234.292 96.1276 235.559 96.9844C236.251 97.4401 236.598 97.8639 236.598 98.2559C236.598 98.4655 236.475 98.8027 236.229 99.2676C235.982 99.7324 235.782 100.047 235.627 100.211C235.481 100.375 235.344 100.457 235.217 100.457C234.989 100.457 234.688 100.334 234.314 100.088C233.95 99.8418 233.426 99.5729 232.742 99.2812C232.059 98.9896 231.411 98.8438 230.801 98.8438C230.19 98.8438 229.698 98.8939 229.324 98.9941C228.96 99.0944 228.641 99.2448 228.367 99.4453C227.802 99.8737 227.52 100.498 227.52 101.318C227.52 102.503 228.331 103.442 229.953 104.135L231.279 104.682C233.057 105.365 234.406 106.122 235.326 106.951C236.593 108.1 237.227 109.508 237.227 111.176C237.227 113.035 236.525 114.548 235.121 115.715C233.827 116.799 232.309 117.342 230.568 117.342C228.335 117.342 226.435 116.882 224.867 115.961C224.138 115.542 223.773 115.173 223.773 114.854ZM240.098 114.854C240.098 114.525 240.23 114.138 240.494 113.691C240.758 113.245 240.936 112.971 241.027 112.871C241.21 112.652 241.392 112.543 241.574 112.543C241.766 112.543 241.966 112.602 242.176 112.721C242.385 112.839 242.663 112.99 243.01 113.172C243.365 113.345 243.743 113.509 244.145 113.664C245.038 114.001 245.817 114.17 246.482 114.17C247.157 114.17 247.704 114.111 248.123 113.992C248.542 113.874 248.902 113.696 249.203 113.459C249.823 112.958 250.133 112.256 250.133 111.354C250.133 110.214 249.271 109.243 247.549 108.441C247.057 108.214 246.501 107.986 245.881 107.758C245.27 107.521 244.623 107.206 243.939 106.814C243.265 106.423 242.659 105.962 242.121 105.434C240.927 104.249 240.33 102.854 240.33 101.25C240.33 99.5456 241.027 98.1784 242.422 97.1484C243.725 96.1823 245.261 95.6992 247.029 95.6992C248.998 95.6992 250.616 96.1276 251.883 96.9844C252.576 97.4401 252.922 97.8639 252.922 98.2559C252.922 98.4655 252.799 98.8027 252.553 99.2676C252.307 99.7324 252.106 100.047 251.951 100.211C251.805 100.375 251.669 100.457 251.541 100.457C251.313 100.457 251.012 100.334 250.639 100.088C250.274 99.8418 249.75 99.5729 249.066 99.2812C248.383 98.9896 247.736 98.8438 247.125 98.8438C246.514 98.8438 246.022 98.8939 245.648 98.9941C245.284 99.0944 244.965 99.2448 244.691 99.4453C244.126 99.8737 243.844 100.498 243.844 101.318C243.844 102.503 244.655 103.442 246.277 104.135L247.604 104.682C249.381 105.365 250.73 106.122 251.65 106.951C252.917 108.1 253.551 109.508 253.551 111.176C253.551 113.035 252.849 114.548 251.445 115.715C250.151 116.799 248.633 117.342 246.893 117.342C244.66 117.342 242.759 116.882 241.191 115.961C240.462 115.542 240.098 115.173 240.098 114.854ZM257.693 111.832C257.301 111.012 257.001 110.141 256.791 109.221C256.59 108.291 256.49 107.197 256.49 105.939C256.49 104.673 256.732 103.387 257.215 102.084C257.707 100.781 258.4 99.6549 259.293 98.707C261.18 96.7018 263.622 95.6992 266.621 95.6992C269.811 95.6992 272.313 96.7246 274.127 98.7754C275.85 100.717 276.711 103.251 276.711 106.377C276.711 109.476 275.763 112.069 273.867 114.156C272.974 115.141 271.903 115.92 270.654 116.494C269.406 117.059 268.139 117.342 266.854 117.342C265.577 117.342 264.488 117.21 263.586 116.945C262.684 116.672 261.859 116.294 261.111 115.811C260.373 115.318 259.717 114.735 259.143 114.061C258.568 113.386 258.085 112.643 257.693 111.832ZM260.195 106.281C260.195 107.329 260.318 108.323 260.564 109.262C260.82 110.201 261.207 111.039 261.727 111.777C262.875 113.391 264.493 114.197 266.58 114.197C268.676 114.197 270.294 113.427 271.434 111.887C272.482 110.465 273.006 108.624 273.006 106.363C273.006 104.23 272.473 102.471 271.406 101.086C270.23 99.582 268.626 98.8301 266.594 98.8301C264.634 98.8301 263.076 99.5319 261.918 100.936C260.77 102.312 260.195 104.094 260.195 106.281ZM295.51 114.061L296.918 113.869C297.173 113.869 297.351 113.956 297.451 114.129C297.561 114.302 297.638 114.489 297.684 114.689C297.738 114.881 297.788 115.054 297.834 115.209C297.88 115.364 297.902 115.533 297.902 115.715C297.902 115.897 297.811 116.084 297.629 116.275C297.456 116.458 297.232 116.622 296.959 116.768C296.376 117.077 295.765 117.232 295.127 117.232C294.498 117.232 293.928 117.16 293.418 117.014C292.908 116.868 292.424 116.667 291.969 116.412C291.258 116.011 290.529 115.446 289.781 114.717C289.043 113.988 288.455 113.363 288.018 112.844L285.762 110.055C285.443 109.672 285.156 109.362 284.9 109.125V116.139C284.9 116.503 284.777 116.763 284.531 116.918C284.44 116.973 284.335 117 284.217 117H282.262C282.016 117 281.842 116.927 281.742 116.781C281.578 116.544 281.496 116.33 281.496 116.139V97.2441C281.496 96.9251 281.578 96.6471 281.742 96.4102C281.915 96.1641 282.193 96.041 282.576 96.041H288.674C294.097 96.041 296.809 98.1829 296.809 102.467C296.809 104.436 296.079 106.09 294.621 107.43C293.245 108.697 291.622 109.33 289.754 109.33C289.426 109.33 289.111 109.307 288.811 109.262L290.492 111.039C291.458 112.051 292.21 112.734 292.748 113.09C293.714 113.737 294.635 114.061 295.51 114.061ZM284.9 106.514C285.93 106.751 286.86 106.869 287.689 106.869C288.528 106.869 289.275 106.792 289.932 106.637C290.588 106.482 291.171 106.236 291.682 105.898C292.812 105.169 293.377 104.089 293.377 102.658C293.377 101.373 292.889 100.421 291.914 99.8008C291.094 99.2812 289.982 99.0215 288.578 99.0215H284.9V106.514ZM302.223 96.916C302.223 96.679 302.296 96.474 302.441 96.3008C302.596 96.1276 302.779 96.041 302.988 96.041H304.902C305.112 96.041 305.29 96.1276 305.436 96.3008C305.581 96.474 305.654 96.679 305.654 96.916V116.125C305.654 116.362 305.577 116.567 305.422 116.74C305.276 116.913 305.098 117 304.889 117H302.975C302.765 117 302.587 116.913 302.441 116.74C302.296 116.567 302.223 116.362 302.223 116.125V96.916ZM310.357 117C310.093 117 309.893 116.918 309.756 116.754C309.619 116.581 309.551 116.435 309.551 116.316C309.551 116.189 309.564 116.089 309.592 116.016L316.496 97.4492C316.806 96.638 317.303 96.1823 317.986 96.082C318.223 96.0547 318.506 96.041 318.834 96.041H319.066C319.686 96.041 320.115 96.1185 320.352 96.2734C320.734 96.5104 321.031 96.8887 321.24 97.4082L328.664 116.029C328.691 116.102 328.705 116.207 328.705 116.344C328.705 116.471 328.65 116.613 328.541 116.768C328.432 116.923 328.249 117 327.994 117H326.08C325.661 117 325.369 116.804 325.205 116.412L323.51 111.969H314.527L312.955 116.412C312.827 116.804 312.549 117 312.121 117H310.357ZM322.361 109.016L319.094 100.129C319.066 100.038 319.012 99.9922 318.93 99.9922C318.848 99.9922 318.793 100.038 318.766 100.129L315.594 109.016H322.361ZM354.613 100.484C354.613 101.615 354.112 102.18 353.109 102.18H352.166C351.874 102.18 351.646 102.075 351.482 101.865C351.327 101.646 351.236 101.35 351.209 100.977C351.191 100.594 351.077 100.247 350.867 99.9375C350.658 99.6185 350.389 99.3633 350.061 99.1719C349.45 98.8164 348.639 98.6387 347.627 98.6387C346.615 98.6387 345.736 98.8529 344.988 99.2812C344.241 99.7005 343.639 100.266 343.184 100.977C342.309 102.307 341.871 104.085 341.871 106.309C341.871 110.31 343.174 112.826 345.781 113.855C346.583 114.165 347.367 114.32 348.133 114.32C349.518 114.32 350.74 114.07 351.797 113.568L352.562 113.213C352.809 113.104 353.027 113.049 353.219 113.049C353.41 113.049 353.565 113.094 353.684 113.186C353.802 113.277 353.948 113.495 354.121 113.842C354.303 114.179 354.395 114.475 354.395 114.73C354.395 114.977 354.308 115.223 354.135 115.469C353.962 115.706 353.747 115.915 353.492 116.098C353.046 116.389 352.508 116.631 351.879 116.822C350.73 117.169 349.386 117.342 347.846 117.342C346.314 117.342 344.943 117.064 343.73 116.508C342.527 115.952 341.516 115.182 340.695 114.197C339.009 112.192 338.166 109.562 338.166 106.309C338.166 103.1 339.018 100.539 340.723 98.625C342.464 96.6562 344.861 95.6719 347.914 95.6719C349.591 95.6719 351.077 96.0456 352.371 96.793C353.866 97.6497 354.613 98.8802 354.613 100.484ZM358.045 111.832C357.653 111.012 357.352 110.141 357.143 109.221C356.942 108.291 356.842 107.197 356.842 105.939C356.842 104.673 357.083 103.387 357.566 102.084C358.059 100.781 358.751 99.6549 359.645 98.707C361.531 96.7018 363.974 95.6992 366.973 95.6992C370.163 95.6992 372.665 96.7246 374.479 98.7754C376.201 100.717 377.062 103.251 377.062 106.377C377.062 109.476 376.115 112.069 374.219 114.156C373.326 115.141 372.255 115.92 371.006 116.494C369.757 117.059 368.49 117.342 367.205 117.342C365.929 117.342 364.84 117.21 363.938 116.945C363.035 116.672 362.21 116.294 361.463 115.811C360.725 115.318 360.068 114.735 359.494 114.061C358.92 113.386 358.437 112.643 358.045 111.832ZM360.547 106.281C360.547 107.329 360.67 108.323 360.916 109.262C361.171 110.201 361.559 111.039 362.078 111.777C363.227 113.391 364.844 114.197 366.932 114.197C369.028 114.197 370.646 113.427 371.785 111.887C372.833 110.465 373.357 108.624 373.357 106.363C373.357 104.23 372.824 102.471 371.758 101.086C370.582 99.582 368.978 98.8301 366.945 98.8301C364.986 98.8301 363.427 99.5319 362.27 100.936C361.121 102.312 360.547 104.094 360.547 106.281ZM381.943 97.7363C381.943 96.6061 382.436 96.041 383.42 96.041H383.98C384.354 96.041 384.614 96.0866 384.76 96.1777C385.033 96.3418 385.288 96.6016 385.525 96.957L394.33 109.918C394.667 110.41 394.932 110.861 395.123 111.271L395.684 112.447C395.693 112.465 395.706 112.475 395.725 112.475C395.752 112.475 395.757 112.356 395.738 112.119C395.72 111.882 395.674 111.54 395.602 111.094C395.529 110.638 395.492 110.187 395.492 109.74V96.875C395.492 96.638 395.561 96.4421 395.697 96.2871C395.843 96.123 396.016 96.041 396.217 96.041H398.021C398.213 96.041 398.377 96.123 398.514 96.2871C398.66 96.4421 398.732 96.638 398.732 96.875V115.633C398.732 115.997 398.618 116.28 398.391 116.48C398.008 116.827 397.661 117 397.352 117H396.518C396.062 117 395.729 116.927 395.52 116.781C395.21 116.544 394.827 116.098 394.371 115.441C389.167 107.831 386.378 103.72 386.004 103.109L384.869 101.209C384.851 101.182 384.824 101.168 384.787 101.168C384.76 101.168 384.76 101.236 384.787 101.373C384.814 101.51 384.851 101.742 384.896 102.07C384.951 102.389 385.001 102.745 385.047 103.137C385.138 104.048 385.184 104.896 385.184 105.68V116.166C385.184 116.394 385.111 116.59 384.965 116.754C384.828 116.918 384.66 117 384.459 117H382.654C382.463 117 382.294 116.918 382.148 116.754C382.012 116.59 381.943 116.394 381.943 116.166V97.7363ZM408.316 99.0215H403.381C403.144 99.0215 402.939 98.9486 402.766 98.8027C402.602 98.6478 402.52 98.4609 402.52 98.2422V96.8066C402.52 96.597 402.602 96.4193 402.766 96.2734C402.939 96.1185 403.144 96.041 403.381 96.041H416.889C417.126 96.041 417.303 96.1185 417.422 96.2734C417.549 96.4193 417.613 96.6016 417.613 96.8203V98.2559C417.613 98.4655 417.549 98.6478 417.422 98.8027C417.294 98.9486 417.112 99.0215 416.875 99.0215H411.762V116.125C411.762 116.362 411.684 116.567 411.529 116.74C411.383 116.913 411.206 117 410.996 117H409.068C408.859 117 408.681 116.913 408.535 116.74C408.389 116.567 408.316 116.362 408.316 116.125V99.0215ZM419.951 117C419.687 117 419.486 116.918 419.35 116.754C419.213 116.581 419.145 116.435 419.145 116.316C419.145 116.189 419.158 116.089 419.186 116.016L426.09 97.4492C426.4 96.638 426.896 96.1823 427.58 96.082C427.817 96.0547 428.1 96.041 428.428 96.041H428.66C429.28 96.041 429.708 96.1185 429.945 96.2734C430.328 96.5104 430.624 96.8887 430.834 97.4082L438.258 116.029C438.285 116.102 438.299 116.207 438.299 116.344C438.299 116.471 438.244 116.613 438.135 116.768C438.025 116.923 437.843 117 437.588 117H435.674C435.255 117 434.963 116.804 434.799 116.412L433.104 111.969H424.121L422.549 116.412C422.421 116.804 422.143 117 421.715 117H419.951ZM431.955 109.016L428.688 100.129C428.66 100.038 428.605 99.9922 428.523 99.9922C428.441 99.9922 428.387 100.038 428.359 100.129L425.188 109.016H431.955ZM427.102 94.7012C426.737 94.8288 426.477 94.7376 426.322 94.4277L425.898 93.5117C425.762 93.2383 425.83 93.0241 426.104 92.8691L431.121 89.9844C431.34 89.8385 431.545 89.7656 431.736 89.7656C432.101 89.7656 432.333 89.8841 432.434 90.1211L433.172 91.6934C433.245 91.8392 433.281 91.9759 433.281 92.1035C433.281 92.4408 433.085 92.6777 432.693 92.8145L427.102 94.7012ZM442.469 97.2168C442.469 96.679 442.66 96.319 443.043 96.1367C443.171 96.0729 443.33 96.041 443.521 96.041H449.879C451.665 96.041 453.188 96.4193 454.445 97.1758C455.977 98.0781 456.742 99.459 456.742 101.318C456.742 102.585 456.378 103.643 455.648 104.49C454.992 105.238 454.154 105.712 453.133 105.912V105.967C454.527 106.031 455.685 106.436 456.605 107.184C457.654 108.059 458.178 109.234 458.178 110.711C458.178 112.862 457.389 114.48 455.812 115.564C454.436 116.521 452.568 117 450.207 117H443.521C443.148 117 442.879 116.886 442.715 116.658C442.551 116.421 442.469 116.143 442.469 115.824V97.2168ZM445.859 104.955C447.245 104.955 448.352 104.928 449.182 104.873C450.585 104.791 451.615 104.481 452.271 103.943C452.928 103.396 453.256 102.635 453.256 101.66C453.256 100.685 452.905 99.9876 452.203 99.5684C451.51 99.14 450.471 98.9258 449.086 98.9258H445.859V104.955ZM450.18 114.088C452.185 114.088 453.516 113.518 454.172 112.379C454.418 111.96 454.541 111.467 454.541 110.902C454.541 110.337 454.464 109.886 454.309 109.549C454.154 109.212 453.944 108.924 453.68 108.688C453.415 108.451 453.105 108.264 452.75 108.127C452.395 107.981 452.021 107.867 451.629 107.785C450.945 107.658 450.262 107.594 449.578 107.594C448.721 107.594 447.814 107.617 446.857 107.662L445.859 107.703L445.873 114.088H450.18ZM462.977 96.916C462.977 96.679 463.049 96.474 463.195 96.3008C463.35 96.1276 463.533 96.041 463.742 96.041H465.656C465.866 96.041 466.044 96.1276 466.189 96.3008C466.335 96.474 466.408 96.679 466.408 96.916V116.125C466.408 116.362 466.331 116.567 466.176 116.74C466.03 116.913 465.852 117 465.643 117H463.729C463.519 117 463.341 116.913 463.195 116.74C463.049 116.567 462.977 116.362 462.977 116.125V96.916ZM472.643 96.916C472.643 96.679 472.715 96.474 472.861 96.3008C473.016 96.1276 473.199 96.041 473.408 96.041H475.322C475.532 96.041 475.71 96.1276 475.855 96.3008C476.001 96.474 476.074 96.679 476.074 96.916V113.951H483.484C483.721 113.951 483.899 114.029 484.018 114.184C484.145 114.329 484.209 114.512 484.209 114.73V116.234C484.209 116.444 484.145 116.626 484.018 116.781C483.899 116.927 483.721 117 483.484 117H473.395C473.185 117 473.007 116.913 472.861 116.74C472.715 116.567 472.643 116.362 472.643 116.125V96.916Z" fill="#999999"/>
<path d="M0 0H60.5C82.3152 0 100 17.6848 100 39.5H39.5C17.6848 39.5 0 21.8152 0 0Z" fill="#03256C"/>
<path d="M0 84C0 62.1848 17.6848 44.5 39.5 44.5H100C100 66.3152 82.3152 84 60.5 84H0Z" fill="#D4AEFF"/>
<path d="M0 144.5L0 84C0 62.1848 17.6848 44.5 39.5 44.5L39.5 105C39.5 126.815 21.8152 144.5 0 144.5Z" fill="#FEDE65" fill-opacity="0.8"/>
</svg>
